<?xml version="1.0" encoding="utf-8"?>
<!-- Generator: Adobe Illustrator 23.0.3, SVG Export Plug-In . SVG Version: 6.00 Build 0)  -->
<svg version="1.1" id="Layer_1" xmlns="http://www.w3.org/2000/svg" xmlns:xlink="http://www.w3.org/1999/xlink" x="0px" y="0px"
	 viewBox="0 0 65 46" style="enable-background:new 0 0 65 46;" xml:space="preserve">
<g>
	<path d="M6.15,16.18c0.44,0.2,0.71,0.42,0.8,0.68c0.09,0.25,0.06,0.53-0.1,0.84c-0.07,0.13-0.14,0.28-0.22,0.45
		c-0.07,0.17-0.15,0.33-0.22,0.49c-0.1,0.22-0.18,0.43-0.25,0.65c-0.07,0.22-0.13,0.4-0.16,0.55c0.24-0.1,0.47-0.18,0.69-0.23
		c0.21-0.05,0.4-0.07,0.57-0.07c0.18,0,0.36,0.02,0.53,0.07c0.18,0.05,0.35,0.13,0.51,0.24c0.26,0.18,0.46,0.44,0.6,0.77
		c0.15,0.34,0.22,0.71,0.22,1.11c0,0.4-0.02,0.81-0.06,1.23s-0.1,0.86-0.18,1.29c-0.08,0.43-0.19,0.86-0.32,1.29
		c-0.13,0.42-0.29,0.82-0.47,1.21c-0.27,0.56-0.55,1.04-0.83,1.44c-0.28,0.4-0.59,0.76-0.92,1.09c-0.4,0.4-0.76,0.67-1.1,0.81
		c-0.34,0.14-0.64,0.21-0.91,0.21c-0.16,0-0.31-0.03-0.46-0.09c-0.15-0.06-0.28-0.19-0.4-0.38c-0.08-0.13-0.14-0.28-0.2-0.46
		c-0.05-0.18-0.09-0.36-0.1-0.54c-0.01-0.17-0.01-0.35,0.01-0.57c0.02-0.21,0.04-0.39,0.08-0.54l0.45-0.04
		c-0.01,0.11-0.01,0.24,0,0.4c0.02,0.16,0.04,0.3,0.07,0.42c0.04,0.17,0.11,0.33,0.19,0.48s0.2,0.23,0.36,0.23
		c0.15,0,0.31-0.04,0.5-0.11c0.19-0.07,0.38-0.21,0.59-0.4c0.35-0.33,0.69-0.74,1-1.24c0.32-0.5,0.6-1.07,0.84-1.71
		c0.1-0.26,0.2-0.55,0.29-0.88c0.09-0.32,0.17-0.66,0.23-1.01s0.12-0.71,0.15-1.07c0.04-0.36,0.06-0.72,0.06-1.07
		c0-0.6-0.08-1.02-0.24-1.26c-0.16-0.24-0.39-0.33-0.7-0.29c-0.08,0.01-0.17,0.03-0.28,0.06c-0.11,0.03-0.23,0.07-0.36,0.11
		c-0.13,0.04-0.26,0.1-0.39,0.15s-0.26,0.12-0.38,0.18c-0.12,0.27-0.24,0.59-0.38,0.98c-0.14,0.38-0.27,0.78-0.4,1.18
		c-0.13,0.4-0.25,0.79-0.36,1.16c-0.12,0.37-0.2,0.68-0.27,0.92l-0.39,1.42c-0.06,0.22-0.13,0.37-0.21,0.47s-0.19,0.14-0.34,0.14
		c-0.07,0-0.14-0.02-0.2-0.07c-0.06-0.04-0.12-0.1-0.17-0.16s-0.09-0.13-0.13-0.21s-0.06-0.15-0.08-0.22
		c-0.04-0.17-0.04-0.37,0.01-0.61c0.05-0.24,0.15-0.5,0.3-0.77c0.06-0.11,0.13-0.26,0.21-0.45c0.08-0.19,0.17-0.4,0.27-0.64
		c0.1-0.24,0.19-0.49,0.3-0.75c0.1-0.26,0.2-0.52,0.3-0.77c0.1-0.25,0.19-0.48,0.27-0.71c0.08-0.22,0.15-0.41,0.21-0.56
		c-0.12,0.04-0.26,0.1-0.4,0.16c-0.15,0.06-0.3,0.13-0.45,0.21c-0.15,0.08-0.3,0.16-0.45,0.24c-0.15,0.08-0.28,0.16-0.4,0.23
		c-0.36,0.22-0.67,0.36-0.9,0.42c-0.24,0.05-0.45,0.03-0.65-0.08c-0.12-0.06-0.22-0.15-0.33-0.27c-0.1-0.11-0.2-0.24-0.29-0.39
		c-0.09-0.14-0.17-0.3-0.24-0.46s-0.13-0.33-0.17-0.49l0.39-0.28c0.16,0.31,0.35,0.52,0.58,0.65c0.23,0.13,0.51,0.14,0.83,0.04
		c0.22-0.06,0.45-0.14,0.69-0.22c0.24-0.08,0.49-0.16,0.73-0.24c0.24-0.08,0.48-0.16,0.7-0.23c0.22-0.07,0.43-0.13,0.6-0.18
		c0.08-0.19,0.15-0.4,0.22-0.63s0.14-0.47,0.2-0.7s0.12-0.46,0.17-0.68c0.05-0.22,0.1-0.4,0.13-0.56c0.04-0.19,0.05-0.35,0.03-0.49
		c-0.03-0.13-0.09-0.25-0.19-0.35s-0.24-0.19-0.42-0.27c-0.18-0.08-0.41-0.16-0.68-0.24l0.32-0.45c0.11,0.01,0.23,0.03,0.37,0.06
		c0.14,0.03,0.28,0.06,0.42,0.09s0.27,0.07,0.4,0.11C5.95,16.11,6.06,16.15,6.15,16.18z M11.53,20.21c0.16,0.07,0.32,0.17,0.48,0.31
		c0.16,0.14,0.29,0.3,0.38,0.47c0.12,0.22,0.22,0.46,0.29,0.72c0.07,0.26,0.13,0.49,0.16,0.69c0.24-0.27,0.47-0.51,0.71-0.7
		s0.47-0.36,0.7-0.52c0.24-0.17,0.48-0.28,0.71-0.35c0.23-0.07,0.47-0.1,0.73-0.1c0.27,0,0.52,0.06,0.74,0.17
		c0.22,0.11,0.43,0.27,0.63,0.46c0.2,0.21,0.35,0.44,0.42,0.71s0.11,0.55,0.11,0.83c0,0.45-0.09,0.88-0.28,1.29
		c-0.19,0.41-0.48,0.84-0.86,1.31c-0.19,0.22-0.4,0.46-0.65,0.7s-0.52,0.47-0.81,0.7c-0.29,0.23-0.59,0.44-0.9,0.65
		c-0.31,0.21-0.62,0.4-0.93,0.56l-0.37-0.39c0.6-0.36,1.14-0.77,1.61-1.22c0.47-0.45,0.88-0.91,1.22-1.39
		c0.27-0.38,0.46-0.75,0.55-1.1c0.09-0.35,0.13-0.71,0.13-1.09c0-0.46-0.08-0.83-0.24-1.1c-0.16-0.27-0.39-0.41-0.68-0.41
		c-0.15,0-0.31,0.05-0.47,0.15s-0.33,0.22-0.49,0.37s-0.32,0.31-0.47,0.49c-0.15,0.18-0.29,0.35-0.41,0.51
		c-0.14,0.19-0.23,0.37-0.28,0.55c-0.05,0.18-0.07,0.33-0.07,0.46c0,0.24-0.06,0.4-0.17,0.49c-0.11,0.09-0.24,0.13-0.39,0.13
		c-0.1,0-0.18-0.01-0.26-0.03c-0.08-0.02-0.15-0.07-0.21-0.13c-0.06-0.07-0.12-0.16-0.18-0.28s-0.1-0.27-0.15-0.46
		c-0.03-0.11-0.05-0.24-0.06-0.4c-0.02-0.16-0.03-0.33-0.04-0.51c-0.01-0.18-0.02-0.37-0.03-0.56c-0.01-0.19-0.02-0.37-0.03-0.53
		c-0.01-0.16-0.03-0.3-0.06-0.41c-0.03-0.11-0.06-0.22-0.09-0.31c-0.04-0.09-0.08-0.17-0.12-0.24c-0.05-0.07-0.1-0.15-0.16-0.24
		L11.53,20.21z"/>
	<path d="M26.1,16.46c-0.38,0.47-0.71,0.9-0.98,1.27s-0.51,0.74-0.71,1.09s-0.39,0.72-0.55,1.1c-0.16,0.38-0.32,0.81-0.49,1.29
		c-0.12,0.35-0.22,0.66-0.29,0.95c-0.07,0.29-0.13,0.58-0.18,0.86c-0.04,0.28-0.08,0.57-0.1,0.85c-0.02,0.29-0.04,0.6-0.06,0.93
		c-0.02,0.38-0.02,0.78,0,1.18c0.02,0.41,0.06,0.79,0.12,1.16c0.04,0.22,0.07,0.4,0.08,0.52c0.02,0.12,0.02,0.25,0,0.38
		c-0.01,0.14-0.07,0.23-0.16,0.27c-0.09,0.04-0.2,0.06-0.32,0.06c-0.1,0-0.19-0.04-0.3-0.12c-0.1-0.08-0.2-0.18-0.29-0.3
		c-0.1-0.14-0.2-0.35-0.28-0.64c-0.09-0.28-0.13-0.65-0.13-1.1c0-0.36,0.02-0.77,0.05-1.2s0.09-0.89,0.17-1.37
		c0.08-0.47,0.19-0.96,0.33-1.45c0.14-0.49,0.32-0.98,0.53-1.46c0.2-0.45,0.4-0.87,0.6-1.28c0.2-0.4,0.42-0.79,0.66-1.17
		c0.24-0.37,0.51-0.74,0.81-1.1c0.3-0.36,0.65-0.72,1.05-1.09L26.1,16.46z M31.78,16.54c0.36-0.16,0.69-0.25,1-0.27
		c0.31-0.02,0.57,0.04,0.79,0.19c0.22,0.14,0.37,0.37,0.46,0.69c0.09,0.31,0.09,0.72,0.01,1.22c-0.06,0.32-0.11,0.67-0.16,1.04
		s-0.09,0.76-0.14,1.16c-0.04,0.4-0.08,0.81-0.12,1.22c-0.04,0.41-0.07,0.81-0.09,1.2c-0.06,0.87-0.1,1.65-0.13,2.35
		c-0.03,0.69-0.02,1.31,0.03,1.86c0.04,0.43,0.13,0.8,0.28,1.1c0.15,0.31,0.33,0.57,0.53,0.78c0.2,0.21,0.42,0.37,0.66,0.49
		c0.24,0.11,0.47,0.19,0.69,0.24c0.26,0.05,0.51,0.07,0.75,0.07c0.24-0.01,0.48-0.05,0.7-0.12l0.12,0.49
		c-0.13,0.09-0.32,0.16-0.56,0.23c-0.24,0.06-0.54,0.09-0.91,0.09c-0.35,0-0.71-0.07-1.09-0.2c-0.38-0.13-0.74-0.33-1.07-0.59
		c-0.33-0.27-0.61-0.6-0.85-0.99c-0.24-0.4-0.38-0.86-0.43-1.4c-0.05-0.54-0.06-1.16-0.03-1.84c0.03-0.68,0.07-1.38,0.12-2.1
		c0.03-0.39,0.06-0.81,0.1-1.27s0.09-0.93,0.13-1.41c0.05-0.48,0.1-0.95,0.15-1.42c0.05-0.47,0.11-0.91,0.16-1.33
		c0.07-0.56,0-0.89-0.22-0.99c-0.22-0.1-0.61,0.04-1.17,0.41c-0.46,0.31-0.98,0.78-1.57,1.41c-0.59,0.63-1.23,1.41-1.93,2.35
		c0.06,0.35,0.1,0.74,0.13,1.18s0.05,0.95,0.06,1.53c0.03,1.06-0.01,1.94-0.12,2.65c-0.1,0.71-0.25,1.3-0.45,1.76
		c-0.19,0.45-0.4,0.78-0.63,0.99c-0.23,0.21-0.49,0.32-0.78,0.32c-0.2,0-0.45-0.09-0.75-0.27c-0.3-0.18-0.64-0.5-1.02-0.95
		c-0.19-0.23-0.33-0.46-0.42-0.69c-0.09-0.23-0.14-0.46-0.15-0.69s0.01-0.45,0.06-0.67c0.05-0.22,0.13-0.43,0.23-0.63
		c0.15-0.31,0.31-0.63,0.48-0.96s0.38-0.67,0.6-1.03c0.23-0.36,0.48-0.74,0.77-1.14c0.29-0.4,0.62-0.84,0.99-1.31
		c-0.04-0.24-0.1-0.44-0.15-0.62c-0.06-0.18-0.13-0.32-0.22-0.44c-0.11-0.13-0.21-0.23-0.32-0.29c-0.1-0.06-0.21-0.09-0.31-0.09
		s-0.22,0.03-0.35,0.08c-0.12,0.05-0.27,0.13-0.43,0.23l-0.19-0.34c0.06-0.11,0.15-0.22,0.26-0.3c0.11-0.09,0.23-0.16,0.36-0.22
		c0.13-0.06,0.26-0.11,0.4-0.14c0.13-0.03,0.26-0.05,0.36-0.05c0.29,0,0.55,0.09,0.78,0.26c0.23,0.18,0.42,0.49,0.58,0.95
		c0.33-0.41,0.67-0.81,1.01-1.2c0.34-0.39,0.68-0.75,1.02-1.08c0.34-0.33,0.67-0.62,1.01-0.88C31.14,16.88,31.47,16.68,31.78,16.54z
		 M27.09,22.41c-0.17,0.26-0.35,0.53-0.52,0.8c-0.18,0.27-0.34,0.54-0.5,0.8s-0.3,0.51-0.44,0.75c-0.14,0.24-0.25,0.46-0.35,0.66
		c-0.1,0.21-0.18,0.43-0.24,0.66c-0.06,0.23-0.1,0.45-0.11,0.67c-0.01,0.21-0.01,0.42,0.02,0.6c0.03,0.19,0.07,0.35,0.14,0.48
		c0.04,0.08,0.1,0.17,0.16,0.26c0.06,0.09,0.13,0.17,0.21,0.24s0.16,0.13,0.25,0.18c0.09,0.05,0.18,0.07,0.28,0.07
		c0.15,0,0.29-0.09,0.43-0.27s0.25-0.42,0.34-0.71c0.13-0.46,0.22-1,0.28-1.63c0.06-0.62,0.09-1.31,0.09-2.07c0-0.29,0-0.55,0-0.8
		C27.12,22.87,27.11,22.63,27.09,22.41z"/>
	<path d="M47.2,26.53h-7.33l-0.22-0.49h8.34v-1.73c1.25,0.22,1.87,0.43,1.87,0.64c0,0.11-0.24,0.24-0.71,0.37v0.71h5.72l1.02-1.2
		c0.38,0.29,0.83,0.73,1.33,1.31l-0.21,0.37h-7.48c2.19,1.56,4.83,2.67,7.93,3.34c-0.35,0.29-0.65,0.69-0.9,1.2
		c-2.97-1.01-5.44-2.4-7.41-4.16v5.05h-1.16v-4.61c-2.3,1.91-5.04,3.28-8.21,4.12l-0.3-0.45C42.72,29.93,45.3,28.44,47.2,26.53z
		 M42.52,18.66c-0.74,0.87-1.56,1.64-2.46,2.31l-0.32-0.36c1.8-1.66,3.16-3.84,4.09-6.52c1.16,0.29,1.74,0.58,1.74,0.86
		c0,0.17-0.28,0.29-0.85,0.35c-0.26,0.51-0.53,0.99-0.81,1.44h4.4l0.07-0.17c0.31-0.9,0.53-1.72,0.68-2.48
		c1.26,0.29,1.89,0.56,1.89,0.8c0,0.16-0.27,0.28-0.82,0.35c-0.43,0.63-0.82,1.13-1.16,1.5h4.64l0.9-1.12
		c0.41,0.35,0.82,0.77,1.24,1.26l-0.22,0.35h-6.34v1.72h3.58l0.9-1.03c0.21,0.16,0.62,0.54,1.22,1.14l-0.22,0.37h-5.48v1.84h3.58
		l0.94-1.11c0.45,0.38,0.85,0.8,1.2,1.25l-0.2,0.35h-5.52v1.97h4.61l0.96-1.18c0.44,0.36,0.87,0.78,1.3,1.28l-0.24,0.39H43.64v0.83
		h-1.12V18.66z M43.64,17.22v1.72h4.44v-1.72H43.64z M43.64,21.27h4.44v-1.84h-4.44V21.27z M43.64,23.72h4.44v-1.97h-4.44V23.72z"/>
</g>
<g>
	<path d="M38.14,36.9c-0.38,0-0.73,0.05-1.07,0.14v8.4c0.17,0.04,0.34,0.07,0.52,0.1c0.18,0.03,0.36,0.04,0.55,0.04
		c0.53,0,1.03-0.09,1.5-0.28c0.47-0.18,0.89-0.44,1.27-0.76s0.69-0.7,0.94-1.13c0.26-0.44,0.43-0.91,0.52-1.41l0.28,0.05
		c-0.1,0.54-0.28,1.03-0.55,1.49s-0.61,0.86-1,1.2c-0.4,0.34-0.85,0.61-1.35,0.8s-1.04,0.29-1.6,0.29c-0.63,0-1.23-0.12-1.78-0.36
		c-0.56-0.24-1.04-0.57-1.46-0.98s-0.74-0.9-0.98-1.46c-0.24-0.56-0.36-1.16-0.36-1.79s0.12-1.23,0.36-1.79
		c0.24-0.56,0.57-1.05,0.98-1.46s0.9-0.74,1.46-0.98c0.56-0.24,1.15-0.36,1.78-0.36c0.56,0,1.09,0.09,1.58,0.28s0.94,0.45,1.34,0.78
		c0.4,0.33,0.73,0.72,1,1.17c0.27,0.45,0.46,0.94,0.57,1.46l-0.26,0.06c-0.1-0.5-0.27-0.97-0.53-1.4c-0.26-0.43-0.57-0.8-0.94-1.11
		s-0.79-0.56-1.26-0.73C39.16,36.99,38.66,36.9,38.14,36.9z M33.85,41.25c0,0.48,0.07,0.94,0.22,1.37v-2.74
		C33.92,40.31,33.85,40.77,33.85,41.25z M34.51,38.93c-0.04,0.06-0.08,0.13-0.11,0.2c-0.04,0.07-0.07,0.13-0.1,0.2v3.85
		c0.06,0.14,0.13,0.27,0.22,0.4V38.93z M34.96,38.33c-0.04,0.05-0.08,0.1-0.11,0.14c-0.04,0.05-0.07,0.1-0.11,0.14v5.26
		c0.04,0.05,0.08,0.1,0.11,0.14c0.04,0.05,0.07,0.1,0.11,0.14V38.33z M35.42,37.89c-0.04,0.03-0.08,0.06-0.11,0.1
		c-0.04,0.03-0.07,0.07-0.11,0.11v6.32c0.06,0.07,0.14,0.14,0.23,0.19V37.89z M35.64,37.72v7.06l0.22,0.16v-7.36L35.64,37.72z
		 M36.07,37.44v7.61c0.04,0.02,0.08,0.05,0.12,0.07s0.08,0.04,0.12,0.07v-7.86L36.07,37.44z M36.77,37.13
		c-0.04,0.02-0.08,0.03-0.11,0.04c-0.04,0.01-0.07,0.03-0.11,0.04v8.06c0.06,0.03,0.13,0.06,0.23,0.08V37.13z"/>
	<path d="M43.32,41.25c0-0.63,0.12-1.23,0.36-1.79c0.24-0.56,0.57-1.05,0.98-1.46s0.9-0.74,1.46-0.98c0.56-0.24,1.15-0.36,1.78-0.36
		c0.63,0,1.23,0.12,1.79,0.36c0.56,0.24,1.05,0.57,1.46,0.98c0.42,0.42,0.74,0.9,0.98,1.46c0.24,0.56,0.36,1.16,0.36,1.79
		s-0.12,1.23-0.36,1.79c-0.24,0.56-0.57,1.05-0.98,1.46c-0.42,0.42-0.9,0.74-1.46,0.98c-0.56,0.24-1.16,0.36-1.79,0.36
		c-0.63,0-1.23-0.12-1.78-0.36c-0.56-0.24-1.04-0.57-1.46-0.98s-0.74-0.9-0.98-1.46C43.44,42.47,43.32,41.88,43.32,41.25z
		 M43.62,41.25c0,0.48,0.07,0.94,0.22,1.37v-2.74C43.69,40.31,43.62,40.77,43.62,41.25z M44.28,38.93c-0.04,0.06-0.08,0.13-0.11,0.2
		c-0.04,0.07-0.07,0.13-0.1,0.2v3.85c0.06,0.14,0.13,0.27,0.22,0.4V38.93z M44.72,38.33c-0.04,0.05-0.08,0.1-0.11,0.14
		c-0.04,0.05-0.07,0.1-0.11,0.14v5.26c0.04,0.05,0.08,0.1,0.11,0.14c0.04,0.05,0.07,0.1,0.11,0.14V38.33z M45.19,37.89
		c-0.04,0.03-0.08,0.06-0.11,0.1c-0.04,0.03-0.07,0.07-0.11,0.11v6.32c0.06,0.07,0.14,0.14,0.23,0.19V37.89z M45.41,37.72v7.06
		l0.22,0.16v-7.36L45.41,37.72z M45.84,37.44v7.61c0.04,0.02,0.08,0.05,0.12,0.07s0.08,0.04,0.12,0.07v-7.86L45.84,37.44z
		 M46.54,37.13c-0.04,0.02-0.08,0.03-0.11,0.04c-0.04,0.01-0.07,0.03-0.11,0.04v8.06c0.06,0.03,0.13,0.06,0.23,0.08V37.13z
		 M47.9,36.9c-0.38,0-0.73,0.05-1.07,0.14v8.4c0.17,0.04,0.34,0.07,0.52,0.1c0.18,0.03,0.36,0.04,0.55,0.04
		c0.59,0,1.15-0.11,1.67-0.34s0.98-0.54,1.37-0.93c0.39-0.39,0.69-0.85,0.92-1.38c0.22-0.53,0.34-1.09,0.34-1.69
		s-0.11-1.16-0.34-1.69c-0.22-0.53-0.53-0.99-0.92-1.38c-0.39-0.39-0.84-0.7-1.37-0.93S48.5,36.9,47.9,36.9z"/>
	<path d="M53.44,32h3.37v13.27h4.37v0.39h-7.74V32z M53.75,45.27h0.22V32h-0.22V45.27z M54.4,32h-0.22v13.27h0.22V32z M54.82,32
		H54.6v13.27h0.22V32z M55.25,32h-0.22v13.27h0.22V32z M55.67,32h-0.22v13.27h0.22V32z M56.1,32h-0.22v13.27h0.22V32z M56.3,32
		v13.27h0.2V32H56.3z"/>
	<path d="M62.03,44.58c0-0.25,0.07-0.46,0.22-0.65s0.33-0.3,0.55-0.36c0.07,0.1,0.11,0.21,0.11,0.35c0,0.18-0.07,0.34-0.2,0.48
		c-0.14,0.14-0.3,0.2-0.48,0.2c-0.04,0-0.07,0-0.1-0.01C62.09,44.6,62.06,44.59,62.03,44.58z M63.05,45.6
		c-0.34,0-0.6-0.12-0.79-0.36c0.12-0.1,0.26-0.16,0.42-0.16c0.15,0,0.29,0.05,0.41,0.14c0.12,0.09,0.2,0.21,0.24,0.34
		C63.24,45.59,63.14,45.6,63.05,45.6z M63.34,44.4c0-0.14,0.03-0.26,0.1-0.36c0.07-0.1,0.16-0.19,0.27-0.25
		c0.11,0.1,0.2,0.21,0.26,0.35s0.1,0.28,0.1,0.44c0,0.18-0.04,0.34-0.13,0.5c-0.17-0.02-0.31-0.1-0.43-0.23
		C63.39,44.73,63.34,44.58,63.34,44.4z"/>
</g>
<g>
	<path d="M30.82,0.49l-5.21,4.36l5.2,4.48h-0.42l-5.11-4.4v4.4H21.9V0.49h3.37v4.3l5.12-4.3H30.82z M24.97,0.74h-2.76v8.33h2.76
		V0.74z"/>
	<path d="M36.91,9.32h-5.56c-0.07-0.01-0.13-0.04-0.17-0.08c-0.04-0.05-0.04-0.12,0.02-0.2l5.09-8.72c0.02-0.04,0.07-0.06,0.14-0.06
		s0.11,0.02,0.14,0.06l5.27,9.01h-3.8l-3.34-5.7l-3.18,5.45h5.26L36.91,9.32z M36.42,0.65l-1.56,2.68l3.36,5.75h3.13L36.42,0.65z"/>
	<path d="M42.56,0.49h4.36l3.53,3.86V0.49h0.3v8.68c0,0.11-0.03,0.18-0.1,0.22c-0.07,0.03-0.13,0.01-0.2-0.06l-7.57-8.24v8.24h-0.31
		V0.49z M42.95,0.74l7.5,8.17V4.76l-3.68-4.02H42.95z"/>
	<path d="M57.25,9.32H51.7c-0.07-0.01-0.13-0.04-0.17-0.08c-0.04-0.05-0.04-0.12,0.02-0.2l5.09-8.72c0.02-0.04,0.07-0.06,0.14-0.06
		s0.11,0.02,0.14,0.06l5.27,9.01h-3.8l-3.34-5.7l-3.18,5.45h5.26L57.25,9.32z M56.76,0.65L55.2,3.32l3.36,5.75h3.13L56.76,0.65z"/>
</g>
<g>
</g>
<g>
</g>
<g>
</g>
<g>
</g>
<g>
</g>
<g>
</g>
<g>
</g>
<g>
</g>
<g>
</g>
<g>
</g>
<g>
</g>
<g>
</g>
<g>
</g>
<g>
</g>
<g>
</g>
</svg>
